<?xml version="1.0" encoding="UTF-8" standalone="no"?>
<!-- Created with Inkscape (http://www.inkscape.org/) -->

<svg
   width="273.60913"
   height="53.833817"
   viewBox="0 0 72.392414 14.24353"
   version="1.1"
   id="svg5"
   inkscape:version="1.2.2 (732a01da63, 2022-12-09)"
   sodipodi:docname="logo50bitsPlano.svg"
   inkscape:export-filename="Portfolio\logo50bits.png"
   inkscape:export-xdpi="96"
   inkscape:export-ydpi="96"
   xmlns:inkscape="http://www.inkscape.org/namespaces/inkscape"
   xmlns:sodipodi="http://sodipodi.sourceforge.net/DTD/sodipodi-0.dtd"
   xmlns="http://www.w3.org/2000/svg"
   xmlns:svg="http://www.w3.org/2000/svg">
  <sodipodi:namedview
     id="namedview7"
     pagecolor="#ffffff"
     bordercolor="#000000"
     borderopacity="0.25"
     inkscape:showpageshadow="2"
     inkscape:pageopacity="0.0"
     inkscape:pagecheckerboard="true"
     inkscape:deskcolor="#d1d1d1"
     inkscape:document-units="px"
     showgrid="false"
     inkscape:zoom="0.66245342"
     inkscape:cx="128.31091"
     inkscape:cy="55.852984"
     inkscape:window-width="1360"
     inkscape:window-height="705"
     inkscape:window-x="-8"
     inkscape:window-y="-8"
     inkscape:window-maximized="1"
     inkscape:current-layer="layer1" />
  <defs
     id="defs2">
    <rect
       x="111.1829"
       y="498.18494"
       width="866.01038"
       height="276.98953"
       id="rect2968" />
  </defs>
  <g
     inkscape:label="Capa 1"
     inkscape:groupmode="layer"
     id="layer1"
     transform="translate(-5.2869217,-6.0885118)">
    <g
       aria-label="50.BITS."
       transform="matrix(0.09801999,0,0,0.09801999,-11.554969,-48.128359)"
       id="text2966"
       style="font-size:26.6667px;font-family:'MV Boli';-inkscape-font-specification:'MV Boli, Normal';letter-spacing:-9.27px;word-spacing:0px;white-space:pre;shape-inside:url(#rect2968);shape-padding:22.1746;display:inline;fill:#ffffff">
      <path
         d="m 262.75848,651.18305 q 0,9.75 -3.5625,18.65625 -3.5625,8.90625 -9.75,15 -6.75,6.5625 -16.125,10.125 -9.28125,3.46875 -21.5625,3.46875 -11.4375,0 -22.03125,-2.4375 -10.59375,-2.34375 -17.90625,-5.71875 v -19.78125 h 1.3125 q 7.6875,4.875 18,8.34375 10.3125,3.375 20.25,3.375 6.65625,0 12.84375,-1.875 6.28125,-1.875 11.15625,-6.5625 4.125,-4.03125 6.1875,-9.65625 2.15625,-5.625 2.15625,-13.03125 0,-7.21875 -2.53125,-12.1875 -2.4375,-4.96875 -6.84375,-7.96875 -4.875,-3.5625 -11.90625,-4.96875 -6.9375,-1.5 -15.5625,-1.5 -8.25,0 -15.9375,1.125 -7.59375,1.125 -13.125,2.25 v -71.90625 h 84 v 16.40625 h -65.90625 v 37.125 q 4.03125,-0.375 8.25,-0.5625 4.21875,-0.1875 7.3125,-0.1875 11.34375,0 19.875,1.96875 8.53125,1.875 15.65625,6.75 7.5,5.15625 11.625,13.3125 4.125,8.15625 4.125,20.4375 z"
         style="font-size:192px;font-family:sans-serif;-inkscape-font-specification:'sans-serif, Normal';text-align:center;text-anchor:middle;fill:#800080"
         id="path449" />
      <path
         d="m 376.48847,625.68305 q 0,37.59375 -11.8125,55.21875 -11.71875,17.53125 -36.46875,17.53125 -25.125,0 -36.75,-17.8125 -11.53125,-17.8125 -11.53125,-54.75 0,-37.21875 11.71875,-54.9375 11.71875,-17.8125 36.5625,-17.8125 25.125,0 36.65625,18.09375 11.625,18 11.625,54.46875 z m -24.65625,42.5625 q 3.28125,-7.59375 4.40625,-17.8125 1.21875,-10.3125 1.21875,-24.75 0,-14.25 -1.21875,-24.75 -1.125,-10.5 -4.5,-17.8125 -3.28125,-7.21875 -9,-10.875 -5.625,-3.65625 -14.53125,-3.65625 -8.8125,0 -14.625,3.65625 -5.71875,3.65625 -9.09375,11.0625 -3.1875,6.9375 -4.40625,18.09375 -1.125,11.15625 -1.125,24.46875 0,14.625 1.03125,24.46875 1.03125,9.84375 4.40625,17.625 3.09375,7.3125 8.71875,11.15625 5.71875,3.84375 15.09375,3.84375 8.8125,0 14.625,-3.65625 5.8125,-3.65625 9,-11.0625 z"
         style="font-size:192px;font-family:sans-serif;-inkscape-font-specification:'sans-serif, Normal';text-align:center;text-anchor:middle;fill:#800080"
         id="path451" />
      <path
         d="m 425.99972,695.5268 h -22.40625 v -26.71875 h 22.40625 z"
         style="font-size:192px;font-family:sans-serif;-inkscape-font-specification:sans-serif;text-align:center;text-anchor:middle;fill:#ff00ff"
         id="path453" />
      <path
         d="m 564.47973,652.5893 q 0,10.40625 -3.9375,18.375 -3.9375,7.96875 -10.59375,13.125 -7.875,6.1875 -17.34375,8.8125 -9.375,2.625 -23.90625,2.625 h -49.5 V 555.93305 h 41.34375 q 15.28125,0 22.875,1.125 7.59375,1.125 14.53125,4.6875 7.6875,4.03125 11.15625,10.40625 3.46875,6.28125 3.46875,15.09375 0,9.9375 -5.0625,16.96875 -5.0625,6.9375 -13.5,11.15625 v 0.75 q 14.15625,2.90625 22.3125,12.46875 8.15625,9.46875 8.15625,24 z m -31.21875,-62.90625 q 0,-5.0625 -1.6875,-8.53125 -1.6875,-3.46875 -5.4375,-5.625 -4.40625,-2.53125 -10.6875,-3.09375 -6.28125,-0.65625 -15.5625,-0.65625 h -22.125 v 40.3125 h 24 q 8.71875,0 13.875,-0.84375 5.15625,-0.9375 9.5625,-3.75 4.40625,-2.8125 6.1875,-7.21875 1.875,-4.5 1.875,-10.59375 z m 11.90625,63.65625 q 0,-8.4375 -2.53125,-13.40625 -2.53125,-4.96875 -9.1875,-8.4375 -4.5,-2.34375 -10.96875,-3 -6.375,-0.75 -15.5625,-0.75 h -29.15625 v 51.9375 h 24.5625 q 12.1875,0 19.96875,-1.21875 7.78125,-1.3125 12.75,-4.6875 5.25,-3.65625 7.6875,-8.34375 2.4375,-4.6875 2.4375,-12.09375 z"
         style="font-size:192px;font-family:sans-serif;-inkscape-font-specification:'sans-serif, Normal';text-align:center;text-anchor:middle;fill:#000000"
         id="path455" />
      <path
         d="m 630.77221,695.5268 h -55.125 v -14.25 h 18.28125 V 570.18305 h -18.28125 v -14.25 h 55.125 v 14.25 H 612.49096 V 681.2768 h 18.28125 z"
         style="font-size:192px;font-family:sans-serif;-inkscape-font-specification:'sans-serif, Normal';text-align:center;text-anchor:middle;fill:#000000"
         id="path457" />
      <path
         d="m 752.65847,572.43305 h -49.875 V 695.5268 h -18.5625 V 572.43305 h -49.875 v -16.5 h 118.3125 z"
         style="font-size:192px;font-family:sans-serif;-inkscape-font-specification:'sans-serif, Normal';text-align:center;text-anchor:middle;fill:#000000"
         id="path459" />
      <path
         d="m 862.45098,655.68305 q 0,8.15625 -3.84375,16.125 -3.75,7.96875 -10.59375,13.5 -7.5,6 -17.53125,9.375 -9.9375,3.375 -24,3.375 -15.09375,0 -27.1875,-2.8125 -12,-2.8125 -24.46875,-8.34375 v -23.25 h 1.3125 q 10.59375,8.8125 24.46875,13.59375 13.875,4.78125 26.0625,4.78125 17.25,0 26.8125,-6.46875 9.65625,-6.46875 9.65625,-17.25 0,-9.28125 -4.59375,-13.6875 -4.5,-4.40625 -13.78125,-6.84375 -7.03125,-1.875 -15.28125,-3.09375 -8.15625,-1.21875 -17.34375,-3.09375 -18.5625,-3.9375 -27.5625,-13.40625 -8.90625,-9.5625 -8.90625,-24.84375 0,-17.53125 14.8125,-28.6875 14.8125,-11.25 37.59375,-11.25 14.71875,0 27,2.8125 12.28125,2.8125 21.75,6.9375 v 21.9375 h -1.3125 q -7.96875,-6.75 -21,-11.15625 -12.9375,-4.5 -26.53125,-4.5 -14.90625,0 -24,6.1875 -9,6.1875 -9,15.9375 0,8.71875 4.5,13.6875 4.5,4.96875 15.84375,7.59375 6,1.3125 17.0625,3.1875 11.0625,1.875 18.75,3.84375 15.5625,4.125 23.4375,12.46875 7.875,8.34375 7.875,23.34375 z"
         style="font-size:192px;font-family:sans-serif;-inkscape-font-specification:'sans-serif, Normal';text-align:center;text-anchor:middle;fill:#000000"
         id="path461" />
      <path
         d="m 910.36846,695.5268 h -22.40625 v -26.71875 h 22.40625 z"
         style="font-size:192px;font-family:sans-serif;-inkscape-font-specification:sans-serif;text-align:center;text-anchor:middle;fill:#ff00ff"
         id="path463" />
    </g>
  </g>
</svg>
